<svg id="Layer_1" data-name="Layer 1" xmlns="http://www.w3.org/2000/svg" viewBox="0 0 3000 3000"><defs><style>.cls-1{fill:#fff;}.cls-2{fill:#030303;}</style></defs><rect class="cls-1" width="3000" height="3000"/><path class="cls-2" d="M1064.31,981.37c106.14-98,227.66-160.72,361.18-186.5a730.57,730.57,0,0,1,138.61-13.58c121.67,0,241.77,32.73,357,97.27,86.76,48.66,160.93,112.9,220.45,190.9,10.66,14,24.9,33.21,43,57.79,9.38,12.77,17.95,20.72,26.94,25a116.7,116.7,0,0,0,50,11.5c51.53,0,91.45-34.88,97.08-84.8a91.6,91.6,0,0,0-14-61c-94.18-147.88-220.37-261.92-375-339-124.25-62-264.41-94.73-405.33-94.73-122.53,0-246,25.07-357.16,72.52-184.73,78.86-330.14,201.8-432.21,365.42C668.89,1191.9,625.46,1386,645.68,1599.06c15.23,161,72.42,308.7,170,439,187.77,250.65,443.25,377.73,759.32,377.71,5.54,0,11.13,0,16.71-.11,91.79-1.27,184-18.7,274.08-51.78,188.61-69.25,341.92-188.86,455.63-355.44,5.1-7.43,30.8-45.88,34.85-73.3,3.88-26.08-3.71-51.73-21.39-72.24-19.45-22.56-48.47-36-77.64-36a85,85,0,0,0-46.83,13.66c-13.53,8.85-30.35,28.55-54.56,63.93-79.2,116.19-185.2,202.47-315.06,256.46-93,38.65-189.56,58.25-287,58.25-205.83,0-396.13-86.51-535.86-243.58C876.37,1816.43,814.67,1612.74,844.19,1402,867.36,1236.32,941.41,1094.79,1064.31,981.37Z"/><path class="cls-2" d="M1289.8,1287.11a3.2,3.2,0,0,0-.33,5.84l237,117.65a39.62,39.62,0,0,0,31.57,1.63l434.29-163.62a27.56,27.56,0,0,1,37.31,26q-1.45,207.46-.22,463c.22,48.45-28.87,54.83-73,71.16q-225.32,83.7-409.85,154.53c-11.36,4.32-25.74,1.84-43.36-7.36q-175.68-92-388.77-200a51.06,51.06,0,0,1-27.9-45.53V1233.69a25.94,25.94,0,0,1,7.9-18.71c11.57-11.14,26.82-20,46-26.5q59.2-20.26,401.63-150c18.49-7,42.71-4.22,72.56,8.65q150.36,64.71,301.71,134.2a6.8,6.8,0,0,1-.43,12.54l-164.59,62a38.61,38.61,0,0,1-31.15-1.52l-133.12-66.07a38.74,38.74,0,0,0-30.82-1.52L1289.8,1287.11m-65.21,352.64a5.3,5.3,0,0,0,2.59,4.54l227.75,131.39a5.14,5.14,0,0,0,7.78-4.43V1552.37a5.32,5.32,0,0,0-2.59-4.54l-227.74-131.39a5.15,5.15,0,0,0-7.79,4.44v218.87m663.65-194.33a5.77,5.77,0,0,0-7.78-5.4L1609.68,1542.1a5.89,5.89,0,0,0-3.68,5.41V1778.6a5.77,5.77,0,0,0,7.78,5.41l270.79-102.08a5.9,5.9,0,0,0,3.67-5.41v-231.1Z"/></svg>